# xmcd
#
# Track frame offsets:
#	150
#	21264
#	35624
#	51957
#	69164
#	85649
#	98943
#	117566
#	130708
#	148080
#	161898
#	178456
#	194920
#	210854
#	226392
#	246196
#
# Disc length: 3485 seconds
#
# Revision: 1
# Processed by: cddbd v1.5.2PL0 Copyright (c) Steve Scherf et al.
# Submitted via: audiograbber 1.83.01
#
DISCID=eb0d9b10
DTITLE=Various Artist - Country Flavours 
DYEAR=2003
DGENRE=Country
TTITLE0=Lucinda Williams - Righteously
TTITLE1=The Jayhawks - Save It For A Rainy Day
TTITLE2=Lee Kernaghan - I'm From The Country
TTITLE3=Beck - Lost Cause
TTITLE4=Johnny Cash - Hurt
TTITLE5=Sara Storer - Beautiful Circle
TTITLE6=Beccy Cole - Little Victories
TTITLE7=Adam Harvey - Call It Love
TTITLE8=Terri Clark - Pain To Kill
TTITLE9=George Strait - Amarillo By Morning (Live)
TTITLE10=Willie Nelson (feat Norah Jones - Lonestar (Live)
TTITLE11=Josh Arnold - Brigalow
TTITLE12=Catherine Britt - 46 Miles From Alice
TTITLE13=Vince Gill - Next Big Thing
TTITLE14=Garry Allan - Alright Guy
TTITLE15=Toby Keith (feat Willie Nelson) - Beer For My Horses
EXTD=Universal Music\nCat No   CFPR00303
EXTT0=
EXTT1=
EXTT2=
EXTT3=
EXTT4=
EXTT5=
EXTT6=
EXTT7=
EXTT8=
EXTT9=
EXTT10=
EXTT11=
EXTT12=
EXTT13=
EXTT14=
EXTT15=
PLAYORDER=
